<?xml version="1.0" encoding="iso-8859-1"?>
<!-- Generator: Adobe Illustrator 19.0.0, SVG Export Plug-In . SVG Version: 6.00 Build 0)  -->
<svg xmlns="http://www.w3.org/2000/svg" xmlns:xlink="http://www.w3.org/1999/xlink" version="1.1" id="Layer_1" x="0px" y="0px" viewBox="0 0 512 512" style="enable-background:new 0 0 512 512;" xml:space="preserve">
<path style="fill:#F2F2F2;" d="M192.087,503.248h237.605c7.509,0,13.596-6.087,13.596-13.596V22.348  c0-7.509-6.087-13.596-13.596-13.596H82.309c-7.509,0-13.596,6.087-13.596,13.596v357.525L192.087,503.248z"/>
<g>
	<path style="fill:#E6E6E6;" d="M429.691,8.752H399.35c7.508,0,13.596,6.087,13.596,13.596v467.303   c0,7.508-6.087,13.596-13.596,13.596h30.341c7.508,0,13.596-6.087,13.596-13.596V22.348C443.287,14.84,437.2,8.752,429.691,8.752z"/>
	<path style="fill:#E6E6E6;" d="M192.087,391.823v111.426L68.713,379.875h111.426C186.738,379.875,192.087,385.224,192.087,391.823z   "/>
</g>
<path style="fill:#CCCCCC;" d="M161.746,379.875v93.033l30.341,30.341V392.213c0-6.814-5.523-12.337-12.337-12.337h-18.004V379.875z  "/>
<path style="fill:#FEE570;" d="M429.691,8.752H82.309c-7.509,0-13.596,6.087-13.596,13.596v19.252h374.574V22.348  C443.287,14.84,437.2,8.752,429.691,8.752z"/>
<path style="fill:#FED301;" d="M412.946,22.348v19.252h30.341V22.348c0-3.285-1.165-6.298-3.104-8.648  c-0.277-0.336-0.569-0.658-0.878-0.965c-2.46-2.46-5.859-3.982-9.613-3.982h-30.341C406.859,8.752,412.946,14.84,412.946,22.348z"/>
<g>
	<path style="fill:#232323;" d="M128.656,98.11c2.381-2.381,5.325-4.282,8.756-5.65c3.544-1.417,7.631-2.134,12.147-2.134   c4.24,0,7.827,0.614,10.662,1.825c1.755,0.75,3.374,1.645,4.81,2.662c3.947,2.793,9.409,1.854,12.199-2.091   c2.791-3.947,1.855-9.409-2.091-12.199c-2.445-1.728-5.149-3.232-8.042-4.468c-5.024-2.145-10.924-3.234-17.539-3.234   c-6.751,0-13.022,1.139-18.64,3.382c-5.643,2.253-10.569,5.458-14.642,9.528c-4.069,4.072-7.265,8.977-9.5,14.582   c-2.223,5.582-3.35,11.793-3.35,18.464c0,6.561,1.007,12.71,2.993,18.278c2.007,5.631,4.946,10.554,8.734,14.634   c3.797,4.089,8.432,7.321,13.775,9.606c5.331,2.283,11.39,3.439,18.008,3.439c7.373,0,13.821-1.224,19.166-3.635   c3.384-1.528,6.471-3.497,9.173-5.858c3.641-3.179,4.015-8.708,0.837-12.349c-3.178-3.64-8.707-4.013-12.349-0.837   c-1.427,1.245-3.017,2.256-4.862,3.088c-3.067,1.385-7.093,2.087-11.966,2.087c-4.237,0-7.978-0.682-11.122-2.027   c-3.077-1.316-5.713-3.141-7.833-5.425c-2.162-2.328-3.868-5.222-5.075-8.603c-1.31-3.676-1.976-7.848-1.976-12.398   c0-4.443,0.708-8.476,2.108-11.985C124.387,103.41,126.278,100.488,128.656,98.11z"/>
	<path style="fill:#232323;" d="M223.556,163.803h6.281c3.569,0,6.78-2.166,8.115-5.474l29.299-72.544   c1.811-4.482-0.356-9.583-4.838-11.393c-4.482-1.813-9.582,0.356-11.393,4.838l-24.324,60.225L202.37,79.228   c-1.81-4.482-6.91-6.65-11.393-4.838c-4.482,1.81-6.648,6.911-4.838,11.393l29.299,72.546   C216.777,161.638,219.989,163.803,223.556,163.803z"/>
	<path style="fill:#232323;" d="M389.617,207.903H106.63c-4.835,0-8.752,3.917-8.752,8.752c0,4.835,3.917,8.752,8.752,8.752h282.987   c4.835,0,8.752-3.917,8.752-8.752C398.369,211.82,394.451,207.903,389.617,207.903z"/>
	<path style="fill:#232323;" d="M389.617,145.91H271.17c-4.835,0-8.752,3.917-8.752,8.752c0,4.835,3.917,8.752,8.752,8.752h118.446   c4.835,0,8.752-3.917,8.752-8.752C398.369,149.828,394.451,145.91,389.617,145.91z"/>
	<path style="fill:#232323;" d="M389.617,269.894H106.63c-4.835,0-8.752,3.917-8.752,8.752s3.917,8.752,8.752,8.752h282.987   c4.835,0,8.752-3.917,8.752-8.752S394.451,269.894,389.617,269.894z"/>
	<path style="fill:#232323;" d="M389.617,331.885h-33.161c-4.835,0-8.752,3.917-8.752,8.752c0,4.835,3.917,8.752,8.752,8.752h33.161   c4.835,0,8.752-3.917,8.752-8.752C398.369,335.802,394.451,331.885,389.617,331.885z"/>
	<path style="fill:#232323;" d="M328.391,340.637c0-4.835-3.917-8.752-8.752-8.752H106.63c-4.835,0-8.752,3.917-8.752,8.752   c0,4.835,3.917,8.752,8.752,8.752h213.009C324.474,349.389,328.391,345.472,328.391,340.637z"/>
	<path style="fill:#232323;" d="M299.207,443.553l33.243-16.137l3.098,14.385c0.559,2.594,2.264,4.794,4.637,5.983   c1.232,0.616,2.574,0.927,3.919,0.927c1.244,0,2.489-0.266,3.649-0.797l45.511-20.872c4.394-2.015,6.321-7.211,4.306-11.603   c-2.017-4.395-7.207-6.324-11.604-4.307l-35.602,16.327l-3.151-14.627c-0.566-2.627-2.307-4.848-4.723-6.025   c-2.416-1.176-5.237-1.18-7.656-0.006l-43.274,21.005c-4.348,2.111-6.162,7.347-4.052,11.695   C289.622,443.85,294.855,445.664,299.207,443.553z"/>
	<path style="fill:#232323;" d="M443.287,110.693c4.835,0,8.752-3.917,8.752-8.752V22.348C452.039,10.025,442.014,0,429.691,0   L82.309,0.001c-12.324,0-22.348,10.025-22.348,22.347v357.525c0,0.099,0.012,0.197,0.014,0.295   c0.003,0.098,0.008,0.196,0.014,0.294c0.026,0.372,0.067,0.742,0.138,1.106c0.001,0.005,0.001,0.01,0.002,0.015   c0.074,0.37,0.18,0.732,0.3,1.088c0.032,0.092,0.064,0.182,0.098,0.273c0.126,0.336,0.266,0.665,0.433,0.984   c0.011,0.02,0.018,0.04,0.028,0.06c0.177,0.334,0.384,0.651,0.603,0.959c0.057,0.079,0.116,0.158,0.175,0.236   c0.235,0.307,0.482,0.606,0.759,0.881l123.374,123.374c0.207,0.207,0.422,0.401,0.646,0.585c0.114,0.093,0.236,0.175,0.354,0.261   c0.113,0.084,0.224,0.173,0.341,0.251c0.135,0.09,0.278,0.167,0.417,0.25c0.107,0.063,0.211,0.132,0.321,0.19   c0.139,0.074,0.282,0.134,0.425,0.201c0.117,0.055,0.231,0.114,0.35,0.163c0.137,0.056,0.278,0.1,0.415,0.149   c0.13,0.047,0.258,0.098,0.39,0.138c0.133,0.04,0.27,0.068,0.404,0.102c0.141,0.035,0.281,0.077,0.425,0.105   c0.139,0.028,0.28,0.042,0.421,0.063c0.141,0.021,0.282,0.048,0.425,0.062c0.237,0.023,0.476,0.031,0.714,0.035   c0.047,0.001,0.093,0.007,0.14,0.007H429.69c12.324,0,22.348-10.025,22.348-22.347V138.797c0-4.835-3.917-8.752-8.752-8.752   s-8.752,3.917-8.752,8.752v350.855c0,2.67-2.173,4.843-4.844,4.843H200.838v-50.54c0-4.835-3.917-8.752-8.752-8.752   c-4.835,0-8.752,3.917-8.752,8.752v38.162l-93.492-93.492h90.297c1.762,0,3.195,1.434,3.195,3.196v14.499   c0,4.835,3.917,8.752,8.752,8.752c4.835,0,8.752-3.917,8.752-8.752v-14.499c0-11.414-9.285-20.701-20.699-20.701H77.465V22.348   c0-2.67,2.173-4.843,4.844-4.843l347.382-0.001c2.671,0,4.844,2.173,4.844,4.844v79.592   C434.535,106.775,438.454,110.693,443.287,110.693z"/>
</g>
<g>
</g>
<g>
</g>
<g>
</g>
<g>
</g>
<g>
</g>
<g>
</g>
<g>
</g>
<g>
</g>
<g>
</g>
<g>
</g>
<g>
</g>
<g>
</g>
<g>
</g>
<g>
</g>
<g>
</g>
</svg>
