<?xml version="1.0" encoding="UTF-8" standalone="no"?>
<!-- Generator: Adobe Illustrator 16.0.0, SVG Export Plug-In . SVG Version: 6.00 Build 0)  -->

<svg
   version="1.1"
   id="Layer_12"
   x="0px"
   y="0px"
   width="512px"
   height="512px"
   viewBox="0 0 512 512"
   enable-background="new 0 0 512 512"
   xml:space="preserve"
   sodipodi:docname="contact-media__github.svg"
   inkscape:version="1.3 (0e150ed6c4, 2023-07-21)"
   xmlns:inkscape="http://www.inkscape.org/namespaces/inkscape"
   xmlns:sodipodi="http://sodipodi.sourceforge.net/DTD/sodipodi-0.dtd"
   xmlns="http://www.w3.org/2000/svg"
   xmlns:svg="http://www.w3.org/2000/svg"><defs
   id="defs1" /><sodipodi:namedview
   id="namedview1"
   pagecolor="#ffffff"
   bordercolor="#000000"
   borderopacity="0.25"
   inkscape:showpageshadow="2"
   inkscape:pageopacity="0.0"
   inkscape:pagecheckerboard="0"
   inkscape:deskcolor="#d1d1d1"
   inkscape:zoom="1.6074219"
   inkscape:cx="255.68894"
   inkscape:cy="206.23086"
   inkscape:window-width="1920"
   inkscape:window-height="1009"
   inkscape:window-x="-8"
   inkscape:window-y="-8"
   inkscape:window-maximized="1"
   inkscape:current-layer="Layer_12" />&#10;<path
   fill-rule="evenodd"
   clip-rule="evenodd"
   fill="#171515"
   d="m 192,372.0015 c 0,-8.844 7.156,-16 16,-16 8.844,0 16,7.156 16,16 0,8.844 -7.156,16 -16,16 -8.844,0 -16,-7.156 -16,-16 z m 157.328,126.156 c -4.266,1.219 -8.672,2.094 -13.328,2.094 -26.516,0 -48,-21.484 -48,-48 v -58.188 c 0,-20.094 12.898,-37.156 30.797,-43.438 34.367,-11.546 65.203,-40.546 65.203,-74.624 v -32.004 c 0,-15.164 -6.188,-29.285 -16,-41.367 v -36.133 c 0,-17.668 -14.328,-23.719 -32,-13.496 l -24.516,14.176 c -7.851,-2.035 -15.781,-3.18 -23.484,-3.18 h -64 c -7.699,0 -15.633,1.145 -23.484,3.18 L 176,153.0015 c -17.668,-10.223 -32,-4.172 -32,13.496 v 36.133 c -9.812,12.082 -16,26.203 -16,41.367 v 32.004 c 0,23.281 14.488,44.188 34.578,58.812 l -0.02,0.031 c 4.172,2.859 6.945,7.688 6.945,13.156 0,8.828 -7.176,16 -16,16 -4.52,0 -8.574,-1.891 -11.48,-4.906 C 115.004,338.6265 96,309.0325 96,276.0015 v -32.004 c 0,-18.523 6.012,-35.977 16,-51.375 v -47.633 c 0,-35.336 28.645,-47.438 64,-26.996 l 27.461,15.887 c 6.848,-1.164 13.711,-1.883 20.539,-1.883 h 64 c 6.828,0 13.688,0.719 20.539,1.883 L 336,117.9935 c 35.359,-20.441 64,-8.34 64,26.996 v 47.633 c 9.984,15.398 16,32.852 16,51.375 v 32.004 c 0,47.609 -39.25,88.141 -85.531,104.359 -0.055,0.047 -0.109,0.172 -0.188,0.188 -6.016,2.312 -10.281,8.125 -10.281,14.953 v 56.75 c 0,8.844 7.156,16 16,16 1.336,0 2.562,-0.375 3.797,-0.688 82.172,-33.156 140.203,-113.5 140.203,-207.566 0,-123.715 -100.281,-224 -224,-224 -123.715,0 -224,100.285 -224,224 0,97.41 62.254,180.066 149.121,210.895 0.445,0.047 0.852,0.234 1.316,0.234 5.277,0 9.562,-4.297 9.562,-9.562 0,-5.281 -4.285,-9.562 -9.562,-9.562 -0.113,0 -0.113,-0.094 -0.191,-0.141 -53.16,-1.422 -53.219,-63.859 -70.246,-63.859 -8.844,0 -16,-7.156 -16,-16 0,-8.844 7.156,-16 16,-16 1.688,0 4.207,0 7.988,0 32.02,0 27.445,64 72.012,64 17.668,0 32,14.328 32,32 v 28 c 0,15.453 -12.527,28 -28.004,28 -1.688,0 -3.277,-0.344 -4.887,-0.656 C 81.203,478.6105 0,378.9235 0,259.9975 c 0,-141.383 114.617,-256 256,-256 141.383,0 256,114.617 256,256 0,108.41 -67.492,200.848 -162.672,238.16 z"
   id="path1"
   style="fill:#24292f;fill-opacity:1" />&#10;</svg>
