<?xml version="1.0" encoding="UTF-8" standalone="no"?>
<!-- Generator: Adobe Illustrator 16.0.0, SVG Export Plug-In . SVG Version: 6.00 Build 0)  -->

<svg
   version="1.1"
   id="Layer_5"
   x="0px"
   y="0px"
   width="512px"
   height="512px"
   viewBox="0 0 512 512"
   enable-background="new 0 0 512 512"
   xml:space="preserve"
   sodipodi:docname="contact-media__linkedin.svg"
   inkscape:version="1.3 (0e150ed6c4, 2023-07-21)"
   xmlns:inkscape="http://www.inkscape.org/namespaces/inkscape"
   xmlns:sodipodi="http://sodipodi.sourceforge.net/DTD/sodipodi-0.dtd"
   xmlns="http://www.w3.org/2000/svg"
   xmlns:svg="http://www.w3.org/2000/svg"><defs
   id="defs1" /><sodipodi:namedview
   id="namedview1"
   pagecolor="#ffffff"
   bordercolor="#000000"
   borderopacity="0.25"
   inkscape:showpageshadow="2"
   inkscape:pageopacity="0.0"
   inkscape:pagecheckerboard="0"
   inkscape:deskcolor="#d1d1d1"
   inkscape:zoom="1.6074219"
   inkscape:cx="256"
   inkscape:cy="305.76914"
   inkscape:window-width="1920"
   inkscape:window-height="1009"
   inkscape:window-x="-8"
   inkscape:window-y="-8"
   inkscape:window-maximized="1"
   inkscape:current-layer="Layer_5" />&#10;<path
   fill-rule="evenodd"
   clip-rule="evenodd"
   fill="#469ec8"
   d="M 472.001,496 H 392.01 c -19.375,0 -35.523,-13.758 -39.211,-32.04 -0.273,0 -0.523,0.039 -0.797,0.039 V 319.205 c 0,-17.242 -14.328,-31.196 -31.999,-31.196 -17.672,0 -32,13.954 -32,31.196 v 136.38 0.43 c 0,9.758 -3.648,18.547 -9.438,25.508 -3.18,4.813 -8.609,7.985 -14.805,7.985 -9.812,0 -17.758,-7.946 -17.758,-17.759 0,-5.188 2.258,-9.812 5.828,-13.062 2.586,-2.852 4.18,-6.547 4.18,-10.673 V 425.139 392.2 317.713 c 0,-34.079 28.648,-61.713 63.992,-61.713 35.343,0 64.007,27.634 64.007,61.713 v 107.426 c 0,1.148 -0.109,2.141 -0.18,3.195 0.055,-0.016 0.125,-0.016 0.18,-0.039 v 19.719 c 0,8.829 7.156,15.985 16,15.985 h 63.992 c 8.844,0 16,-7.156 16,-15.985 V 304.01 c 0,-1.203 -0.141,-2.352 -0.391,-3.478 -4.109,-69.486 -59.592,-124.542 -127.608,-124.542 -28.234,0 -54.233,9.578 -75.358,25.657 -0.078,-0.039 -0.164,-0.023 -0.328,0.102 -2.148,1.727 -4.859,2.75 -7.812,2.75 -6.914,0 -12.492,-5.602 -12.492,-12.508 0,-0.859 -0.051,-1.305 -0.141,-1.43 -0.738,-8.149 -7.52,-14.571 -15.859,-14.571 h -48.007 c -17.668,0 -32.003,14.336 -32.003,32.009 v 240.015 c 0,1.438 0.254,2.821 0.609,4.142 -0.375,1.148 -0.609,2.422 -0.609,3.859 0,22.086 -17.902,39.985 -40.004,39.985 H 117.072 40.004 C 17.923,496 9.999162e-4,478.101 9.999162e-4,456.015 V 183.99 C 9.999162e-4,161.904 17.923,144.005 40.004,144.005 h 40.004 c 26.496,0 47.988,-21.493 47.988,-48.01 0,-26.516 -21.492,-48.009 -47.988,-48.009 -26.512,0 -48.003,21.493 -48.003,48.009 0,8.844 -7.156,16 -16.004,16 -8.8240001,0 -16.0000000838,-7.156 -16.0000000838,-16 C 9.999162e-4,51.806 35.825,16 80.008,16 124.195,16 160,51.806 160,95.995 c 0,4.055 -0.395,8 -0.984,11.899 -0.129,0.75 -0.199,1.523 -0.344,2.273 -0.699,3.891 -1.648,7.719 -2.906,11.391 -0.051,0.18 -0.141,0.344 -0.195,0.523 -2.762,7.946 -6.691,15.305 -11.66,21.907 -14.586,19.391 -37.746,32.001 -63.902,32.001 H 48.004 c -8.844,0 -16,7.18 -16,16 v 256.023 c 0,8.829 7.156,15.985 16,15.985 h 80.8 c -0.52,-2.586 -0.809,-5.242 -0.809,-7.984 V 207.999 c 0,-35.345 28.668,-63.994 64.007,-63.994 h 56.007 c 9.883,0 18.867,3.641 25.836,9.617 0.086,0.055 0.172,-0.039 0.266,0.031 2.797,2.406 6.422,3.844 10.391,3.844 2.188,0 4.266,-0.43 6.148,-1.227 0.57,-0.25 0.914,-0.211 1.242,-0.172 18.578,-7.609 38.78,-12.094 60.108,-12.094 82.938,0 151.124,63.111 159.194,143.911 0.539,2.602 0.805,5.328 0.805,8.094 V 456.015 C 512.001,478.101 494.103,496 472.001,496 Z M 208.007,463.999 c 8.824,0 16,7.172 16,16 0,8.845 -7.175,16.001 -16,16.001 -8.844,0 -16.004,-7.156 -16.004,-16.001 0,-8.828 7.161,-16 16.004,-16 z"
   id="path1"
   style="fill:#0a66c2;fill-opacity:1" />&#10;</svg>
