<?xml version="1.0" encoding="UTF-8" standalone="no"?>
<!-- Generator: Adobe Illustrator 16.0.0, SVG Export Plug-In . SVG Version: 6.00 Build 0)  -->

<svg
   version="1.1"
   id="Layer_5"
   x="0px"
   y="0px"
   width="512px"
   height="512px"
   viewBox="0 0 512 512"
   enable-background="new 0 0 512 512"
   xml:space="preserve"
   sodipodi:docname="contact-media__twitter.svg"
   inkscape:version="1.3 (0e150ed6c4, 2023-07-21)"
   xmlns:inkscape="http://www.inkscape.org/namespaces/inkscape"
   xmlns:sodipodi="http://sodipodi.sourceforge.net/DTD/sodipodi-0.dtd"
   xmlns="http://www.w3.org/2000/svg"
   xmlns:svg="http://www.w3.org/2000/svg"><defs
   id="defs1" /><sodipodi:namedview
   id="namedview1"
   pagecolor="#ffffff"
   bordercolor="#000000"
   borderopacity="0.25"
   inkscape:showpageshadow="2"
   inkscape:pageopacity="0.0"
   inkscape:pagecheckerboard="0"
   inkscape:deskcolor="#d1d1d1"
   inkscape:zoom="0.78222656"
   inkscape:cx="237.14357"
   inkscape:cy="125.9226"
   inkscape:window-width="1920"
   inkscape:window-height="1009"
   inkscape:window-x="-8"
   inkscape:window-y="-8"
   inkscape:window-maximized="1"
   inkscape:current-layer="Layer_5" />&#10;<path
   fill-rule="evenodd"
   clip-rule="evenodd"
   fill="#00aced"
   d="m 511.99981,107.8425 c 0,7.031 -2.203,13.527 -5.977,18.836 -10.062,15.051 -23.727,25.977 -37.367,37.422 -2.797,2.707 -4.57,6.387 -4.805,10.531 -1.523,69.156 -27.141,148.246 -72.78,200.512 -54.586,62.49 -129,104.881 -215.078,104.881 -8.824,0 -16,-7.172 -16,-16 0,-8.844 7.176,-16 16,-16 158.555,0 244.944,-138.6 255.007,-256.924 0.469,-1.652 0.758,-3.785 0.758,-6.816 0,-1.008 0.016,-2.012 0.07,-2.996 0.789,-13.796 6.961,-26.156 16.43,-35.019 0.469,-0.449 0.828,-0.859 1.172,-1.273 11.555,-11.375 22.211,-24.668 30.461,-37.152 -11.719,5.258 -24.078,9.238 -36.922,11.93 -2.148,0 -3.961,-1.812 -3.961,-4 0,-1.094 0.445,-2.098 1.164,-2.816 0.031,-0.035 -0.109,0.016 -0.125,0.016 12.609,-11.012 22.281,-25.402 27.484,-41.816 -8.469,5.059 -17.406,9.418 -26.68,13.098 -5.992,2.387 -12.5,3.766 -19.359,3.766 -10.672,0 -20.593,-3.211 -28.843,-8.719 -0.32,-0.215 -0.648,-0.359 -0.969,-0.555 -13.672,-9.184 -29.617,-14.711 -47.68,-14.711 l -1.883,0.34 c -39.742,0 -69.945,22.406 -81.234,56.707 -0.317,0.147 -3.551,14.406 -3.875,16.453 -2.996,19.121 -19.535,33.742 -39.504,33.742 -2.168,0 -4.305,-0.18 -6.387,-0.539 -52.472,-9.812 -99.847,-32.504 -135.207004,-69.406 -0.215,-0.18 -0.379,-0.234 -0.684,-0.539 -4.68,-4.684 -12.27,-4.684 -16.969,0 -1.094,1.113 -1.938,2.367 -2.531,3.73 -0.141,0.344 -0.23,0.344 -0.34,0.414 -4.27,9.867 -7.391,20.539 -7.391,31.09 0,21.832 8.879,41.761 22.227,57.601 0,0.02 -0.16,-0.07 -0.09,0 1.168,1.398 1.867,3.195 1.867,5.148 0,4.414 -3.59,8 -8.004,8 -0.879,0 -1.703,-0.23 -2.492,-0.5 -0.125,-0.055 -0.25,-0.109 -0.375,-0.16 -0.145,0.051 -0.305,0.125 -0.559,0 -1.074,-0.539 -2.277,-0.844 -3.566,-0.844 -4.344,0 -7.859,3.516 -7.969,7.82 4.164,28.469 21.637,53.676 45.227,68.458 -0.305,-0.031 -0.484,-0.031 -0.375,0.031 2.168,1.422 3.621,3.898 3.621,6.695 0,4.414 -3.586,8 -8,8 -0.09,0 -0.18,-0.016 -0.27,-0.016 -0.105,-0.023 -0.195,-0.055 -0.305,-0.07 -0.285,-0.039 -0.555,-0.094 -0.844,-0.125 -2.152,0.109 -3.84,1.812 -3.84,3.961 0,0.633 0.129,1.219 0.395,1.742 6.512,16.219 17.527004,30.078 31.395004,40.219 0.164,0.125 0.199,0.234 0.395,0.375 1.184,0.844 2.297,1.812 3.375,2.875 10.922,10.922 10.922,28.648 0,39.594 -3.355,3.328 -7.34,5.664 -11.555,6.953 -0.035,0.016 -0.016,0 -0.055,0.016 -16.395004,5.203 -33.762004,8.219 -52.203004,8.219 -3.086,0 -6.527,0 -9.992,0 -2.207,0 -4,1.797 -4,4 0,1.297 0.645,2.375 1.578,3.094 6.586,3.906 13.332,7.727 20.344,11.281 l -0.016,0.016 c 4.715,2.639 7.965,7.623 7.965,13.436 0,8.523 -6.906,15.43 -15.43,15.43 -3.48,0 -6.672,-1.203 -9.258,-3.141 -11.211,-5.867 -22.082,-12.148 -32.414,-18.836 -12.5899998,-8.142 -17.9379998,-23.986 -12.8789998,-38.197 4.594,-12.992 16.7029998,-19.086 30.1049998,-19.086 5.953,0.719 17.902,0 24,0 12.289,0 22.355,-2.531 33.996,-5.344 -17.473,-14.82 -30.965,-34.555 -38.266,-57.57 -1.812,-5.727 -1.992,-11.734 -0.645,-17.398 -20.648,-22.531 -35.089,-55.293 -35.089,-87.672 0.16,-8.02 5.273,-14.711 10.496,-20.434 -5.059,-13.761 -10.496,-28.433 -10.496,-43.574 0,-22.137 8.558,-43.969 19.554,-63.004 5.309,-9.184 17.957,-16.164 28.449,-16.988 9.598,0 18.031,5.273 24.148,12.844 30.176004,37.352 77.406004,57.426 123.871004,68.906 0.789,0.141 1.633,0.25 2.477,0.25 7.625,0 13.938,-5.293 15.59,-12.434 12.734,-53.781 54.48,-93.625 112.035,-93.625 24.344,0 48.078,7.34 68.147,20.633 3.125,1.973 6.766,3.176 10.727,3.176 1.758,0 3.445,-0.289 5.039,-0.719 8.672,-3.23 17.117,-6.98 25.117,-11.785 5.078,-3.035 10.727,-3.266 16.359,-3.266 7.109,0 14.195,1.129 20.008,5.793 10.422,8.379 14.633,22.391 10.562,35.199 0,0.035 -0.016,0.07 -0.016,0.105 8.416,5.848 13.939,15.645 13.939,26.731 z M 31.997806,368.0185 c -1.258,-0.141 1.253,0 0,0 z m 32,-311.984 c -0.825,0 0.828,-0.075 0,0 z m 56.007004,383.99 c 8.828,0 16.004,7.156 16.004,16 0,8.828 -7.176,16 -16.004,16 -8.844,0 -16,-7.172 -16,-16 0,-8.844 7.157,-16 16,-16 z"
   id="path1"
   style="fill:#1d9bf0;fill-opacity:1" />&#10;</svg>
