<?xml version="1.0" encoding="UTF-8" standalone="no"?>
<!-- Generator: Adobe Illustrator 19.0.0, SVG Export Plug-In . SVG Version: 6.00 Build 0)  -->

<svg
   version="1.1"
   id="Layer_1"
   x="0px"
   y="0px"
   viewBox="0 0 512 512"
   style="enable-background:new 0 0 512 512;"
   xml:space="preserve"
   sodipodi:docname="contact-media__cv.svg"
   inkscape:version="1.3 (0e150ed6c4, 2023-07-21)"
   xmlns:inkscape="http://www.inkscape.org/namespaces/inkscape"
   xmlns:sodipodi="http://sodipodi.sourceforge.net/DTD/sodipodi-0.dtd"
   xmlns="http://www.w3.org/2000/svg"
   xmlns:svg="http://www.w3.org/2000/svg"><defs
   id="defs30" /><sodipodi:namedview
   id="namedview30"
   pagecolor="#ffffff"
   bordercolor="#000000"
   borderopacity="0.25"
   inkscape:showpageshadow="2"
   inkscape:pageopacity="0.0"
   inkscape:pagecheckerboard="0"
   inkscape:deskcolor="#d1d1d1"
   inkscape:zoom="0.74414063"
   inkscape:cx="41.658792"
   inkscape:cy="218.3727"
   inkscape:window-width="1920"
   inkscape:window-height="1009"
   inkscape:window-x="-8"
   inkscape:window-y="-8"
   inkscape:window-maximized="1"
   inkscape:current-layer="g15" />&#10;&#10;&#10;&#10;&#10;&#10;<g
   id="g15"
   style="fill:#fe7b37;fill-opacity:1;stroke-width:0.965475"
   transform="matrix(1.0727982,0,0,1,-64.32605,0)">&#10;	<path
   style="fill:#fe7b37;fill-opacity:1;stroke-width:0.73392"
   d="m 128.656,98.11 c 2.381,-2.381 5.325,-4.282 8.756,-5.65 3.544,-1.417 7.631,-2.134 12.147,-2.134 4.24,0 7.827,0.614 10.662,1.825 1.755,0.75 3.374,1.645 4.81,2.662 3.947,2.793 9.409,1.854 12.199,-2.091 2.791,-3.947 1.855,-9.409 -2.091,-12.199 -2.445,-1.728 -5.149,-3.232 -8.042,-4.468 -5.024,-2.145 -10.924,-3.234 -17.539,-3.234 -6.751,0 -13.022,1.139 -18.64,3.382 -5.643,2.253 -10.569,5.458 -14.642,9.528 -4.069,4.072 -7.265,8.977 -9.5,14.582 -2.223,5.582 -3.35,11.793 -3.35,18.464 0,6.561 1.007,12.71 2.993,18.278 2.007,5.631 4.946,10.554 8.734,14.634 3.797,4.089 8.432,7.321 13.775,9.606 5.331,2.283 11.39,3.439 18.008,3.439 7.373,0 13.821,-1.224 19.166,-3.635 3.384,-1.528 6.471,-3.497 9.173,-5.858 3.641,-3.179 4.015,-8.708 0.837,-12.349 -3.178,-3.64 -8.707,-4.013 -12.349,-0.837 -1.427,1.245 -3.017,2.256 -4.862,3.088 -3.067,1.385 -7.093,2.087 -11.966,2.087 -4.237,0 -7.978,-0.682 -11.122,-2.027 -3.077,-1.316 -5.713,-3.141 -7.833,-5.425 -2.162,-2.328 -3.868,-5.222 -5.075,-8.603 -1.31,-3.676 -1.976,-7.848 -1.976,-12.398 0,-4.443 0.708,-8.476 2.108,-11.985 1.35,-3.382 3.241,-6.304 5.619,-8.682 z"
   id="path7" />&#10;	<path
   style="fill:#fe7b37;fill-opacity:1;stroke-width:0.73392"
   d="m 223.556,163.803 h 6.281 c 3.569,0 6.78,-2.166 8.115,-5.474 l 29.299,-72.544 c 1.811,-4.482 -0.356,-9.583 -4.838,-11.393 -4.482,-1.813 -9.582,0.356 -11.393,4.838 L 226.696,139.455 202.37,79.228 c -1.81,-4.482 -6.91,-6.65 -11.393,-4.838 -4.482,1.81 -6.648,6.911 -4.838,11.393 l 29.299,72.546 c 1.339,3.309 4.551,5.474 8.118,5.474 z"
   id="path8" />&#10;	<path
   style="fill:#fe7b37;fill-opacity:1;stroke-width:0.73392"
   d="M 389.617,207.903 H 106.63 c -4.835,0 -8.752,3.917 -8.752,8.752 0,4.835 3.917,8.752 8.752,8.752 h 282.987 c 4.835,0 8.752,-3.917 8.752,-8.752 0,-4.835 -3.918,-8.752 -8.752,-8.752 z"
   id="path9" />&#10;	<path
   style="fill:#fe7b37;fill-opacity:1;stroke-width:0.73392"
   d="M 389.617,145.91 H 271.17 c -4.835,0 -8.752,3.917 -8.752,8.752 0,4.835 3.917,8.752 8.752,8.752 h 118.446 c 4.835,0 8.752,-3.917 8.752,-8.752 0.001,-4.834 -3.917,-8.752 -8.751,-8.752 z"
   id="path10" />&#10;	<path
   style="fill:#fe7b37;fill-opacity:1;stroke-width:0.73392"
   d="M 389.617,269.894 H 106.63 c -4.835,0 -8.752,3.917 -8.752,8.752 0,4.835 3.917,8.752 8.752,8.752 h 282.987 c 4.835,0 8.752,-3.917 8.752,-8.752 0,-4.835 -3.918,-8.752 -8.752,-8.752 z"
   id="path11" />&#10;	<path
   style="fill:#fe7b37;fill-opacity:1;stroke-width:0.73392"
   d="m 389.617,331.885 h -33.161 c -4.835,0 -8.752,3.917 -8.752,8.752 0,4.835 3.917,8.752 8.752,8.752 h 33.161 c 4.835,0 8.752,-3.917 8.752,-8.752 0,-4.835 -3.918,-8.752 -8.752,-8.752 z"
   id="path12" />&#10;	<path
   style="fill:#fe7b37;fill-opacity:1;stroke-width:0.73392"
   d="m 328.391,340.637 c 0,-4.835 -3.917,-8.752 -8.752,-8.752 H 106.63 c -4.835,0 -8.752,3.917 -8.752,8.752 0,4.835 3.917,8.752 8.752,8.752 h 213.009 c 4.835,0 8.752,-3.917 8.752,-8.752 z"
   id="path13" />&#10;	<path
   style="fill:#fe7b37;fill-opacity:1;stroke-width:0.73392"
   d="m 269.14359,443.553 33.243,-16.137 3.098,14.385 c 0.559,2.594 2.264,4.794 4.637,5.983 1.232,0.616 2.574,0.927 3.919,0.927 1.244,0 2.489,-0.266 3.649,-0.797 l 45.511,-20.872 c 4.394,-2.015 6.321,-7.211 4.306,-11.603 -2.017,-4.395 -7.207,-6.324 -11.604,-4.307 l -35.602,16.327 -3.151,-14.627 c -0.566,-2.627 -2.307,-4.848 -4.723,-6.025 -2.416,-1.176 -5.237,-1.18 -7.656,-0.006 l -43.274,21.005 c -4.348,2.111 -6.162,7.347 -4.052,11.695 2.114,4.349 7.347,6.163 11.699,4.052 z"
   id="path14" />&#10;	<path
   style="fill:#fe7b37;fill-opacity:1;stroke-width:0.73392"
   d="m 443.287,110.693 c 4.835,0 8.752,-3.917 8.752,-8.752 V 22.348 C 452.039,10.025 442.014,0 429.691,0 L 82.309,0.001 c -12.324,0 -22.348,10.025 -22.348,22.347 v 357.525 c 0,0.099 0.012,0.197 0.014,0.295 0.003,0.098 0.008,0.196 0.014,0.294 0.026,0.372 0.067,0.742 0.138,1.106 10e-4,0.005 10e-4,0.01 0.002,0.015 0.074,0.37 0.18,0.732 0.3,1.088 0.032,0.092 0.064,0.182 0.098,0.273 0.126,0.336 0.266,0.665 0.433,0.984 0.011,0.02 0.018,0.04 0.028,0.06 0.177,0.334 0.384,0.651 0.603,0.959 0.057,0.079 0.116,0.158 0.175,0.236 0.235,0.307 0.482,0.606 0.759,0.881 l 123.374,123.374 c 0.207,0.207 0.422,0.401 0.646,0.585 0.114,0.093 0.236,0.175 0.354,0.261 0.113,0.084 0.224,0.173 0.341,0.251 0.135,0.09 0.278,0.167 0.417,0.25 0.107,0.063 0.211,0.132 0.321,0.19 0.139,0.074 0.282,0.134 0.425,0.201 0.117,0.055 0.231,0.114 0.35,0.163 0.137,0.056 0.278,0.1 0.415,0.149 0.13,0.047 0.258,0.098 0.39,0.138 0.133,0.04 0.27,0.068 0.404,0.102 0.141,0.035 0.281,0.077 0.425,0.105 0.139,0.028 0.28,0.042 0.421,0.063 0.141,0.021 0.282,0.048 0.425,0.062 0.237,0.023 0.476,0.031 0.714,0.035 0.047,0.001 0.093,0.007 0.14,0.007 H 429.69 c 12.324,0 22.348,-10.025 22.348,-22.347 V 138.797 c 0,-4.835 -3.917,-8.752 -8.752,-8.752 -4.835,0 -8.752,3.917 -8.752,8.752 v 350.855 c 0,2.67 -2.173,4.843 -4.844,4.843 H 200.838 v -50.54 c 0,-4.835 -3.917,-8.752 -8.752,-8.752 -4.835,0 -8.752,3.917 -8.752,8.752 v 38.162 L 89.842,388.625 h 90.297 c 1.762,0 3.195,1.434 3.195,3.196 v 14.499 c 0,4.835 3.917,8.752 8.752,8.752 4.835,0 8.752,-3.917 8.752,-8.752 v -14.499 c 0,-11.414 -9.285,-20.701 -20.699,-20.701 H 77.465 V 22.348 c 0,-2.67 2.173,-4.843 4.844,-4.843 l 347.382,-10e-4 c 2.671,0 4.844,2.173 4.844,4.844 v 79.592 c 0,4.835 3.919,8.753 8.752,8.753 z"
   id="path15" />&#10;</g>&#10;<g
   id="g16">&#10;</g>&#10;<g
   id="g17">&#10;</g>&#10;<g
   id="g18">&#10;</g>&#10;<g
   id="g19">&#10;</g>&#10;<g
   id="g20">&#10;</g>&#10;<g
   id="g21">&#10;</g>&#10;<g
   id="g22">&#10;</g>&#10;<g
   id="g23">&#10;</g>&#10;<g
   id="g24">&#10;</g>&#10;<g
   id="g25">&#10;</g>&#10;<g
   id="g26">&#10;</g>&#10;<g
   id="g27">&#10;</g>&#10;<g
   id="g28">&#10;</g>&#10;<g
   id="g29">&#10;</g>&#10;<g
   id="g30">&#10;</g>&#10;<circle
   style="fill:#ffffff;fill-opacity:1;stroke:none;stroke-width:10;stroke-linecap:round;stroke-opacity:1"
   id="path2"
   cx="424.65521"
   cy="298.52127"
   r="60.458961" /><path
   style="fill:#ffffff;fill-opacity:1;stroke:none;stroke-width:10;stroke-linecap:round;stroke-opacity:1"
   d="m 352.08399,455.55905 h 150.50918 l -1.34383,-53.75328 -33.5958,-48.37795 c 0,0 -51.06562,16.12598 -77.94226,0 l -29.5643,20.15748 -14.78215,44.34646 z"
   id="path3" /><path
   d="m 348.98774,467.2529 h 150.84103 a 13.19859,13.19859 0 0 0 13.19859,-13.19859 V 415.439 a 83.467883,83.467883 0 0 0 -33.18503,-66.6114 75.247047,75.247047 0 1 0 -110.9662,0 83.56593,83.56593 0 0 0 -33.08698,66.6114 v 38.61531 a 13.19859,13.19859 0 0 0 13.19859,13.19859 z m 75.42051,-217.92004 a 48.849867,48.849867 0 1 1 -48.84987,48.84987 48.910203,48.910203 0 0 1 48.8197,-48.84233 z M 362.18633,415.439 a 57.138581,57.138581 0 0 1 29.18774,-49.73228 74.342001,74.342001 0 0 0 66.02311,0 57.017909,57.017909 0 0 1 29.233,49.73228 v 25.41672 H 362.18633 Z"
   id="path1"
   style="stroke-width:1;fill:#fe7b37;fill-opacity:1;stroke:none;stroke-opacity:1" /></svg>
